<?xml version="1.0" standalone="no"?>
<!DOCTYPE svg PUBLIC "-//W3C//DTD SVG 20010904//EN"
 "http://www.w3.org/TR/2001/REC-SVG-20010904/DTD/svg10.dtd">
<svg version="1.0" xmlns="http://www.w3.org/2000/svg"
 width="100.000000pt" height="100.000000pt" viewBox="0 0 100.000000 100.000000"
 preserveAspectRatio="xMidYMid meet">

<g transform="translate(0.000000,100.000000) scale(0.100000,-0.100000)"
fill="#000000" stroke="none">
<path d="M416 976 c-198 -74 -231 -336 -57 -453 130 -88 314 -31 377 115 20
47 21 146 1 193 -21 50 -73 106 -121 131 -52 27 -148 33 -200 14z"/>
<path d="M264 422 c-82 -59 -137 -151 -150 -249 -6 -49 -4 -54 23 -82 38 -38
110 -59 251 -74 197 -20 414 14 475 74 27 27 28 33 22 82 -13 101 -80 207
-162 258 -34 21 -36 21 -71 4 -54 -27 -212 -32 -272 -10 -25 9 -52 19 -60 21
-9 3 -33 -8 -56 -24z"/>
</g>
</svg>
