<?xml version="1.0" standalone="no"?>
<!DOCTYPE svg PUBLIC "-//W3C//DTD SVG 20010904//EN"
 "http://www.w3.org/TR/2001/REC-SVG-20010904/DTD/svg10.dtd">
<svg version="1.0" xmlns="http://www.w3.org/2000/svg"
 width="100.000000pt" height="100.000000pt" viewBox="0 0 100.000000 100.000000"
 preserveAspectRatio="xMidYMid meet">

<g transform="translate(0.000000,100.000000) scale(0.100000,-0.100000)"
fill="#000000" stroke="none">
<path d="M383 986 c-219 -53 -383 -261 -383 -486 0 -270 230 -500 500 -500
270 0 500 230 500 500 0 274 -233 503 -508 499 -31 0 -80 -6 -109 -13z m-28
-252 c19 -8 85 -92 85 -109 0 -7 -9 -22 -20 -35 -33 -38 -26 -72 25 -119 49
-46 82 -52 110 -21 26 28 45 25 99 -15 54 -42 59 -69 19 -107 -40 -37 -66 -48
-115 -48 -53 0 -97 27 -191 119 -137 133 -157 217 -72 304 40 41 37 39 60 31z"/>
</g>
</svg>
