<svg xmlns="http://www.w3.org/2000/svg" xmlns:xlink="http://www.w3.org/1999/xlink" width="300" zoomAndPan="magnify" viewBox="0 0 224.87999 225" height="300" preserveAspectRatio="xMidYMid meet" version="1.0"><defs><clipPath id="7359ce8c74"><path d="M 0 0.0585938 L 224.761719 0.0585938 L 224.761719 224.9375 L 0 224.9375 Z M 0 0.0585938 " clip-rule="nonzero"/></clipPath></defs><path fill="#ffffff" d="M 189.308594 76.542969 C 189.308594 76.367188 189.308594 76.195312 189.253906 76.015625 C 189.21875 75.261719 189.144531 74.511719 189.035156 73.761719 C 188.925781 73.015625 188.785156 72.273438 188.605469 71.539062 C 188.425781 70.804688 188.210938 70.078125 187.964844 69.367188 C 187.71875 68.652344 187.4375 67.949219 187.121094 67.261719 C 186.808594 66.578125 186.460938 65.90625 186.082031 65.25 C 185.707031 64.597656 185.296875 63.960938 184.859375 63.34375 C 184.421875 62.730469 183.953125 62.136719 183.460938 61.566406 C 182.964844 60.992188 182.445312 60.445312 181.898438 59.925781 C 181.351562 59.402344 180.78125 58.90625 180.1875 58.441406 C 179.59375 57.972656 178.976562 57.535156 178.34375 57.125 C 177.707031 56.714844 177.054688 56.335938 176.382812 55.988281 C 175.710938 55.640625 175.023438 55.328125 174.324219 55.046875 C 173.621094 54.761719 172.910156 54.515625 172.183594 54.300781 C 171.460938 54.085938 170.726562 53.90625 169.984375 53.761719 C 169.242188 53.617188 168.496094 53.507812 167.742188 53.433594 C 166.992188 53.359375 166.238281 53.324219 165.480469 53.320312 L 59.398438 53.320312 C 58.640625 53.324219 57.886719 53.359375 57.136719 53.433594 C 56.382812 53.507812 55.636719 53.617188 54.894531 53.761719 C 54.152344 53.90625 53.417969 54.085938 52.695312 54.300781 C 51.96875 54.515625 51.257812 54.761719 50.554688 55.046875 C 49.855469 55.328125 49.167969 55.640625 48.496094 55.988281 C 47.824219 56.335938 47.171875 56.714844 46.539062 57.125 C 45.902344 57.535156 45.289062 57.972656 44.695312 58.441406 C 44.101562 58.90625 43.53125 59.402344 42.984375 59.925781 C 42.4375 60.445312 41.914062 60.992188 41.421875 61.566406 C 40.925781 62.136719 40.460938 62.730469 40.019531 63.34375 C 39.582031 63.960938 39.175781 64.597656 38.796875 65.25 C 38.417969 65.90625 38.074219 66.578125 37.757812 67.261719 C 37.445312 67.949219 37.164062 68.652344 36.914062 69.367188 C 36.667969 70.078125 36.453125 70.804688 36.273438 71.539062 C 36.097656 72.273438 35.953125 73.015625 35.84375 73.761719 C 35.734375 74.511719 35.664062 75.261719 35.625 76.015625 C 35.625 76.199219 35.589844 76.367188 35.574219 76.546875 C 35.554688 76.730469 35.507812 76.992188 35.507812 77.210938 L 35.507812 147.789062 C 35.507812 148.570312 35.546875 149.351562 35.625 150.128906 C 35.703125 150.90625 35.816406 151.679688 35.972656 152.445312 C 36.125 153.214844 36.316406 153.972656 36.542969 154.71875 C 36.769531 155.46875 37.035156 156.203125 37.332031 156.925781 C 37.632812 157.648438 37.96875 158.355469 38.335938 159.042969 C 38.707031 159.734375 39.109375 160.402344 39.542969 161.054688 C 39.976562 161.703125 40.441406 162.332031 40.9375 162.9375 C 41.4375 163.542969 41.960938 164.121094 42.511719 164.671875 C 43.066406 165.226562 43.644531 165.75 44.25 166.246094 C 44.855469 166.742188 45.480469 167.207031 46.132812 167.644531 C 46.78125 168.078125 47.453125 168.480469 48.140625 168.847656 C 48.832031 169.21875 49.539062 169.550781 50.261719 169.851562 C 50.984375 170.152344 51.71875 170.414062 52.464844 170.644531 C 53.214844 170.871094 53.972656 171.0625 54.738281 171.214844 C 55.507812 171.367188 56.277344 171.484375 57.058594 171.5625 C 57.835938 171.640625 58.617188 171.679688 59.398438 171.679688 L 165.480469 171.679688 C 166.265625 171.679688 167.042969 171.636719 167.824219 171.5625 C 168.601562 171.484375 169.375 171.367188 170.140625 171.214844 C 170.90625 171.0625 171.664062 170.871094 172.414062 170.640625 C 173.160156 170.414062 173.898438 170.152344 174.617188 169.851562 C 175.339844 169.550781 176.046875 169.214844 176.738281 168.847656 C 177.425781 168.476562 178.097656 168.078125 178.746094 167.640625 C 179.398438 167.207031 180.023438 166.742188 180.628906 166.246094 C 181.234375 165.75 181.8125 165.222656 182.363281 164.671875 C 182.917969 164.117188 183.441406 163.539062 183.9375 162.933594 C 184.433594 162.332031 184.902344 161.703125 185.335938 161.054688 C 185.769531 160.402344 186.171875 159.734375 186.542969 159.042969 C 186.910156 158.355469 187.246094 157.648438 187.542969 156.925781 C 187.84375 156.203125 188.109375 155.46875 188.335938 154.71875 C 188.5625 153.972656 188.753906 153.214844 188.90625 152.445312 C 189.0625 151.679688 189.175781 150.90625 189.253906 150.128906 C 189.332031 149.351562 189.371094 148.570312 189.371094 147.789062 L 189.371094 77.210938 C 189.371094 76.992188 189.3125 76.773438 189.308594 76.542969 Z M 59.398438 65.15625 L 165.480469 65.15625 C 166.128906 65.160156 166.773438 65.214844 167.414062 65.320312 C 168.054688 65.425781 168.679688 65.582031 169.292969 65.789062 C 169.910156 66 170.503906 66.253906 171.074219 66.558594 C 171.648438 66.859375 172.191406 67.207031 172.710938 67.601562 C 173.226562 67.992188 173.707031 68.421875 174.15625 68.890625 C 174.601562 69.359375 175.007812 69.863281 175.375 70.398438 C 175.742188 70.933594 176.0625 71.496094 176.335938 72.082031 C 176.613281 72.667969 176.839844 73.273438 177.015625 73.898438 L 112.441406 111.566406 L 47.863281 73.898438 C 48.042969 73.273438 48.269531 72.667969 48.542969 72.082031 C 48.820312 71.496094 49.140625 70.933594 49.503906 70.398438 C 49.871094 69.863281 50.277344 69.359375 50.726562 68.890625 C 51.171875 68.421875 51.652344 67.992188 52.171875 67.601562 C 52.6875 67.207031 53.230469 66.859375 53.804688 66.558594 C 54.378906 66.253906 54.972656 66 55.585938 65.789062 C 56.199219 65.582031 56.828125 65.425781 57.464844 65.320312 C 58.105469 65.214844 58.75 65.160156 59.398438 65.15625 Z M 165.480469 159.84375 L 59.398438 159.84375 C 58.605469 159.84375 57.824219 159.765625 57.046875 159.609375 C 56.273438 159.453125 55.519531 159.222656 54.789062 158.921875 C 54.058594 158.617188 53.363281 158.246094 52.703125 157.804688 C 52.046875 157.367188 51.4375 156.867188 50.878906 156.308594 C 50.320312 155.746094 49.820312 155.140625 49.378906 154.480469 C 48.941406 153.824219 48.570312 153.128906 48.265625 152.398438 C 47.960938 151.667969 47.734375 150.914062 47.578125 150.140625 C 47.421875 149.363281 47.34375 148.578125 47.34375 147.789062 L 47.34375 87.296875 L 109.480469 123.53125 C 109.933594 123.796875 110.414062 123.996094 110.917969 124.132812 C 111.425781 124.269531 111.941406 124.335938 112.464844 124.335938 C 112.988281 124.335938 113.503906 124.269531 114.007812 124.132812 C 114.515625 123.996094 114.992188 123.796875 115.445312 123.53125 L 177.535156 87.296875 L 177.535156 147.789062 C 177.535156 148.578125 177.457031 149.363281 177.300781 150.140625 C 177.148438 150.914062 176.917969 151.667969 176.613281 152.398438 C 176.3125 153.128906 175.941406 153.824219 175.5 154.480469 C 175.058594 155.140625 174.558594 155.746094 174 156.308594 C 173.441406 156.867188 172.832031 157.367188 172.175781 157.804688 C 171.515625 158.246094 170.824219 158.617188 170.09375 158.921875 C 169.363281 159.222656 168.609375 159.453125 167.832031 159.609375 C 167.058594 159.765625 166.273438 159.84375 165.480469 159.84375 Z M 165.480469 159.84375 " fill-opacity="1" fill-rule="nonzero"/><g clip-path="url(#7359ce8c74)"><path fill="#ffffff" d="M 112.441406 0.0585938 C 110.601562 0.0585938 108.761719 0.105469 106.921875 0.195312 C 105.085938 0.285156 103.25 0.421875 101.417969 0.601562 C 99.585938 0.78125 97.761719 1.007812 95.941406 1.277344 C 94.121094 1.546875 92.308594 1.863281 90.503906 2.21875 C 88.699219 2.578125 86.90625 2.984375 85.121094 3.429688 C 83.335938 3.875 81.5625 4.367188 79.800781 4.902344 C 78.039062 5.4375 76.292969 6.011719 74.558594 6.632812 C 72.828125 7.253906 71.109375 7.914062 69.410156 8.617188 C 67.710938 9.324219 66.027344 10.070312 64.367188 10.855469 C 62.703125 11.640625 61.058594 12.46875 59.4375 13.335938 C 57.8125 14.203125 56.210938 15.109375 54.632812 16.058594 C 53.054688 17.003906 51.5 17.988281 49.972656 19.007812 C 48.441406 20.03125 46.9375 21.089844 45.460938 22.1875 C 43.980469 23.285156 42.53125 24.414062 41.109375 25.582031 C 39.6875 26.75 38.292969 27.953125 36.929688 29.1875 C 35.566406 30.421875 34.234375 31.691406 32.933594 32.992188 C 31.632812 34.292969 30.363281 35.625 29.128906 36.988281 C 27.890625 38.351562 26.691406 39.746094 25.523438 41.167969 C 24.355469 42.589844 23.222656 44.042969 22.128906 45.519531 C 21.03125 46.996094 19.972656 48.5 18.949219 50.03125 C 17.925781 51.5625 16.941406 53.117188 15.996094 54.695312 C 15.050781 56.273438 14.144531 57.875 13.277344 59.496094 C 12.410156 61.117188 11.582031 62.761719 10.796875 64.425781 C 10.007812 66.089844 9.261719 67.769531 8.558594 69.472656 C 7.855469 71.171875 7.191406 72.886719 6.574219 74.621094 C 5.953125 76.351562 5.375 78.097656 4.839844 79.859375 C 4.308594 81.621094 3.816406 83.394531 3.371094 85.179688 C 2.921875 86.964844 2.519531 88.757812 2.160156 90.5625 C 1.800781 92.367188 1.488281 94.179688 1.21875 96 C 0.945312 97.820312 0.722656 99.648438 0.542969 101.480469 C 0.359375 103.308594 0.226562 105.144531 0.136719 106.984375 C 0.046875 108.820312 0 110.660156 0 112.5 C 0 114.339844 0.046875 116.179688 0.136719 118.015625 C 0.226562 119.855469 0.359375 121.691406 0.542969 123.519531 C 0.722656 125.351562 0.945312 127.179688 1.21875 129 C 1.488281 130.820312 1.800781 132.632812 2.160156 134.4375 C 2.519531 136.242188 2.921875 138.035156 3.371094 139.820312 C 3.816406 141.605469 4.308594 143.378906 4.839844 145.140625 C 5.375 146.902344 5.953125 148.648438 6.574219 150.378906 C 7.191406 152.113281 7.855469 153.828125 8.558594 155.527344 C 9.261719 157.230469 10.007812 158.910156 10.796875 160.574219 C 11.582031 162.238281 12.410156 163.882812 13.277344 165.503906 C 14.144531 167.125 15.050781 168.726562 15.996094 170.304688 C 16.941406 171.882812 17.925781 173.4375 18.949219 174.96875 C 19.972656 176.5 21.03125 178.003906 22.128906 179.480469 C 23.222656 180.957031 24.355469 182.410156 25.523438 183.832031 C 26.691406 185.253906 27.890625 186.648438 29.128906 188.011719 C 30.363281 189.375 31.632812 190.707031 32.933594 192.007812 C 34.234375 193.308594 35.566406 194.578125 36.929688 195.8125 C 38.292969 197.046875 39.6875 198.25 41.109375 199.417969 C 42.53125 200.585938 43.980469 201.714844 45.460938 202.8125 C 46.9375 203.910156 48.441406 204.96875 49.972656 205.992188 C 51.5 207.011719 53.054688 207.996094 54.632812 208.941406 C 56.210938 209.890625 57.8125 210.796875 59.4375 211.664062 C 61.058594 212.53125 62.703125 213.359375 64.367188 214.144531 C 66.027344 214.929688 67.710938 215.675781 69.410156 216.382812 C 71.109375 217.085938 72.828125 217.746094 74.558594 218.367188 C 76.292969 218.988281 78.039062 219.5625 79.800781 220.097656 C 81.5625 220.632812 83.335938 221.125 85.121094 221.570312 C 86.90625 222.015625 88.699219 222.421875 90.503906 222.78125 C 92.308594 223.136719 94.121094 223.453125 95.941406 223.722656 C 97.761719 223.992188 99.585938 224.21875 101.417969 224.398438 C 103.25 224.578125 105.085938 224.714844 106.921875 224.804688 C 108.761719 224.894531 110.601562 224.941406 112.441406 224.941406 C 114.28125 224.941406 116.121094 224.894531 117.957031 224.804688 C 119.796875 224.714844 121.628906 224.578125 123.460938 224.398438 C 125.292969 224.21875 127.117188 223.992188 128.9375 223.722656 C 130.757812 223.453125 132.570312 223.136719 134.375 222.78125 C 136.179688 222.421875 137.976562 222.015625 139.761719 221.570312 C 141.546875 221.125 143.320312 220.632812 145.078125 220.097656 C 146.839844 219.5625 148.585938 218.988281 150.320312 218.367188 C 152.050781 217.746094 153.769531 217.085938 155.46875 216.382812 C 157.167969 215.675781 158.851562 214.929688 160.515625 214.144531 C 162.179688 213.359375 163.820312 212.53125 165.445312 211.664062 C 167.066406 210.796875 168.667969 209.890625 170.246094 208.941406 C 171.824219 207.996094 173.378906 207.011719 174.910156 205.992188 C 176.4375 204.96875 177.941406 203.910156 179.421875 202.8125 C 180.898438 201.714844 182.347656 200.585938 183.769531 199.417969 C 185.195312 198.25 186.585938 197.046875 187.949219 195.8125 C 189.3125 194.578125 190.644531 193.308594 191.945312 192.007812 C 193.25 190.707031 194.515625 189.375 195.753906 188.011719 C 196.988281 186.648438 198.191406 185.253906 199.355469 183.832031 C 200.523438 182.410156 201.65625 180.957031 202.753906 179.480469 C 203.847656 178.003906 204.90625 176.5 205.929688 174.96875 C 206.953125 173.4375 207.9375 171.882812 208.882812 170.304688 C 209.828125 168.726562 210.734375 167.125 211.601562 165.503906 C 212.46875 163.882812 213.296875 162.238281 214.085938 160.574219 C 214.871094 158.910156 215.617188 157.230469 216.320312 155.527344 C 217.023438 153.828125 217.6875 152.113281 218.308594 150.378906 C 218.925781 148.648438 219.503906 146.902344 220.039062 145.140625 C 220.574219 143.378906 221.0625 141.605469 221.511719 139.820312 C 221.957031 138.035156 222.359375 136.242188 222.71875 134.4375 C 223.078125 132.632812 223.394531 130.820312 223.664062 129 C 223.933594 127.179688 224.15625 125.351562 224.339844 123.519531 C 224.519531 121.691406 224.652344 119.855469 224.746094 118.015625 C 224.835938 116.179688 224.878906 114.339844 224.878906 112.5 C 224.878906 110.660156 224.832031 108.820312 224.738281 106.984375 C 224.648438 105.148438 224.507812 103.3125 224.328125 101.484375 C 224.144531 99.652344 223.917969 97.828125 223.648438 96.007812 C 223.375 94.1875 223.058594 92.375 222.699219 90.574219 C 222.339844 88.769531 221.933594 86.976562 221.484375 85.191406 C 221.039062 83.40625 220.546875 81.632812 220.011719 79.875 C 219.476562 78.113281 218.898438 76.367188 218.277344 74.636719 C 217.65625 72.90625 216.992188 71.191406 216.289062 69.492188 C 215.582031 67.792969 214.835938 66.109375 214.050781 64.449219 C 213.261719 62.785156 212.433594 61.144531 211.566406 59.519531 C 210.699219 57.898438 209.792969 56.300781 208.84375 54.722656 C 207.898438 53.144531 206.914062 51.589844 205.890625 50.0625 C 204.871094 48.53125 203.808594 47.027344 202.714844 45.550781 C 201.617188 44.074219 200.488281 42.625 199.320312 41.203125 C 198.152344 39.78125 196.949219 38.386719 195.714844 37.023438 C 194.480469 35.660156 193.210938 34.328125 191.910156 33.027344 C 190.609375 31.726562 189.277344 30.460938 187.914062 29.226562 C 186.550781 27.988281 185.160156 26.789062 183.738281 25.621094 C 182.316406 24.453125 180.867188 23.320312 179.390625 22.226562 C 177.910156 21.128906 176.410156 20.070312 174.878906 19.046875 C 173.351562 18.023438 171.796875 17.039062 170.21875 16.09375 C 168.640625 15.148438 167.042969 14.242188 165.417969 13.375 C 163.796875 12.503906 162.15625 11.679688 160.492188 10.890625 C 158.828125 10.101562 157.148438 9.355469 155.449219 8.652344 C 153.75 7.945312 152.035156 7.285156 150.304688 6.664062 C 148.570312 6.042969 146.824219 5.464844 145.066406 4.929688 C 143.304688 4.394531 141.535156 3.902344 139.75 3.453125 C 137.964844 3.003906 136.171875 2.601562 134.367188 2.242188 C 132.5625 1.878906 130.75 1.566406 128.933594 1.292969 C 127.113281 1.023438 125.289062 0.792969 123.457031 0.613281 C 121.625 0.429688 119.792969 0.292969 117.957031 0.203125 C 116.117188 0.109375 114.28125 0.0625 112.441406 0.0585938 Z M 112.441406 213.105469 C 110.792969 213.105469 109.148438 213.0625 107.503906 212.984375 C 105.859375 212.902344 104.21875 212.78125 102.578125 212.621094 C 100.941406 212.457031 99.308594 212.257812 97.679688 212.015625 C 96.050781 211.773438 94.429688 211.492188 92.8125 211.171875 C 91.199219 210.851562 89.59375 210.488281 87.996094 210.089844 C 86.398438 209.6875 84.8125 209.25 83.234375 208.773438 C 81.660156 208.292969 80.097656 207.777344 78.546875 207.222656 C 76.996094 206.667969 75.460938 206.078125 73.941406 205.445312 C 72.417969 204.816406 70.914062 204.148438 69.425781 203.445312 C 67.9375 202.742188 66.46875 202 65.015625 201.226562 C 63.5625 200.449219 62.132812 199.636719 60.71875 198.792969 C 59.308594 197.945312 57.917969 197.0625 56.546875 196.148438 C 55.179688 195.234375 53.832031 194.285156 52.511719 193.304688 C 51.1875 192.324219 49.890625 191.3125 48.617188 190.269531 C 47.34375 189.222656 46.097656 188.148438 44.878906 187.042969 C 43.660156 185.9375 42.464844 184.800781 41.300781 183.636719 C 40.136719 182.472656 39.003906 181.28125 37.898438 180.0625 C 36.792969 178.839844 35.714844 177.59375 34.671875 176.324219 C 33.628906 175.050781 32.613281 173.753906 31.632812 172.429688 C 30.652344 171.105469 29.707031 169.761719 28.789062 168.394531 C 27.875 167.023438 26.996094 165.632812 26.148438 164.222656 C 25.300781 162.808594 24.492188 161.375 23.714844 159.925781 C 22.9375 158.472656 22.199219 157.003906 21.496094 155.515625 C 20.789062 154.027344 20.125 152.519531 19.492188 151 C 18.863281 149.476562 18.269531 147.941406 17.714844 146.390625 C 17.160156 144.84375 16.644531 143.28125 16.167969 141.703125 C 15.691406 140.128906 15.25 138.542969 14.851562 136.945312 C 14.449219 135.347656 14.089844 133.742188 13.769531 132.125 C 13.449219 130.511719 13.167969 128.890625 12.925781 127.261719 C 12.683594 125.632812 12.480469 124 12.320312 122.359375 C 12.160156 120.722656 12.039062 119.082031 11.957031 117.4375 C 11.875 115.792969 11.835938 114.144531 11.835938 112.5 C 11.835938 110.855469 11.875 109.207031 11.957031 107.5625 C 12.039062 105.917969 12.160156 104.277344 12.320312 102.640625 C 12.480469 101 12.683594 99.367188 12.925781 97.738281 C 13.167969 96.109375 13.449219 94.488281 13.769531 92.875 C 14.089844 91.257812 14.449219 89.652344 14.851562 88.054688 C 15.25 86.457031 15.691406 84.871094 16.167969 83.296875 C 16.644531 81.71875 17.160156 80.15625 17.714844 78.609375 C 18.269531 77.058594 18.863281 75.523438 19.492188 74 C 20.125 72.480469 20.789062 70.972656 21.496094 69.484375 C 22.199219 67.996094 22.9375 66.527344 23.714844 65.074219 C 24.492188 63.625 25.300781 62.191406 26.148438 60.777344 C 26.996094 59.367188 27.875 57.976562 28.789062 56.605469 C 29.707031 55.238281 30.652344 53.894531 31.632812 52.570312 C 32.613281 51.246094 33.628906 49.949219 34.671875 48.675781 C 35.714844 47.40625 36.792969 46.160156 37.898438 44.9375 C 39.003906 43.71875 40.136719 42.527344 41.300781 41.363281 C 42.464844 40.199219 43.660156 39.0625 44.878906 37.957031 C 46.097656 36.851562 47.34375 35.777344 48.617188 34.730469 C 49.890625 33.6875 51.1875 32.675781 52.511719 31.695312 C 53.832031 30.714844 55.179688 29.765625 56.546875 28.851562 C 57.917969 27.9375 59.308594 27.054688 60.71875 26.207031 C 62.132812 25.363281 63.5625 24.550781 65.015625 23.773438 C 66.46875 23 67.9375 22.257812 69.425781 21.554688 C 70.914062 20.851562 72.417969 20.183594 73.941406 19.554688 C 75.460938 18.921875 76.996094 18.332031 78.546875 17.777344 C 80.097656 17.222656 81.660156 16.707031 83.234375 16.226562 C 84.8125 15.75 86.398438 15.3125 87.996094 14.910156 C 89.59375 14.511719 91.199219 14.148438 92.8125 13.828125 C 94.429688 13.507812 96.050781 13.226562 97.679688 12.984375 C 99.308594 12.742188 100.941406 12.542969 102.578125 12.378906 C 104.21875 12.21875 105.859375 12.097656 107.503906 12.015625 C 109.148438 11.9375 110.792969 11.894531 112.441406 11.894531 C 114.085938 11.894531 115.730469 11.9375 117.375 12.015625 C 119.019531 12.097656 120.664062 12.21875 122.300781 12.378906 C 123.941406 12.542969 125.574219 12.742188 127.203125 12.984375 C 128.832031 13.226562 130.453125 13.507812 132.066406 13.828125 C 133.683594 14.148438 135.289062 14.511719 136.886719 14.910156 C 138.480469 15.3125 140.066406 15.75 141.644531 16.226562 C 143.21875 16.707031 144.78125 17.222656 146.332031 17.777344 C 147.882812 18.332031 149.417969 18.921875 150.941406 19.554688 C 152.460938 20.183594 153.964844 20.851562 155.453125 21.554688 C 156.941406 22.257812 158.414062 23 159.863281 23.773438 C 161.316406 24.550781 162.75 25.363281 164.160156 26.207031 C 165.574219 27.054688 166.964844 27.9375 168.332031 28.851562 C 169.703125 29.765625 171.046875 30.714844 172.371094 31.695312 C 173.691406 32.675781 174.988281 33.6875 176.261719 34.730469 C 177.535156 35.777344 178.78125 36.851562 180 37.957031 C 181.222656 39.0625 182.414062 40.199219 183.578125 41.363281 C 184.742188 42.527344 185.878906 43.71875 186.984375 44.9375 C 188.089844 46.160156 189.164062 47.40625 190.207031 48.675781 C 191.253906 49.949219 192.265625 51.246094 193.246094 52.570312 C 194.226562 53.894531 195.175781 55.238281 196.089844 56.605469 C 197.003906 57.976562 197.882812 59.367188 198.730469 60.777344 C 199.578125 62.191406 200.390625 63.625 201.164062 65.074219 C 201.941406 66.527344 202.679688 67.996094 203.386719 69.484375 C 204.089844 70.972656 204.757812 72.480469 205.386719 74 C 206.015625 75.523438 206.609375 77.058594 207.164062 78.609375 C 207.71875 80.15625 208.234375 81.71875 208.710938 83.296875 C 209.191406 84.871094 209.628906 86.457031 210.027344 88.054688 C 210.429688 89.652344 210.789062 91.257812 211.109375 92.875 C 211.433594 94.488281 211.714844 96.109375 211.957031 97.738281 C 212.195312 99.367188 212.398438 101 212.558594 102.640625 C 212.722656 104.277344 212.84375 105.917969 212.921875 107.5625 C 213.003906 109.207031 213.042969 110.855469 213.042969 112.5 C 213.042969 114.144531 213 115.789062 212.917969 117.433594 C 212.835938 119.078125 212.710938 120.71875 212.550781 122.359375 C 212.386719 123.996094 212.183594 125.628906 211.941406 127.257812 C 211.699219 128.882812 211.414062 130.503906 211.09375 132.117188 C 210.769531 133.734375 210.410156 135.339844 210.007812 136.933594 C 209.605469 138.53125 209.164062 140.117188 208.6875 141.691406 C 208.207031 143.265625 207.691406 144.828125 207.136719 146.378906 C 206.578125 147.925781 205.988281 149.460938 205.355469 150.980469 C 204.726562 152.503906 204.058594 154.007812 203.351562 155.492188 C 202.648438 156.980469 201.910156 158.449219 201.132812 159.902344 C 200.355469 161.355469 199.542969 162.785156 198.695312 164.195312 C 197.851562 165.609375 196.96875 166.996094 196.054688 168.367188 C 195.140625 169.734375 194.191406 171.078125 193.210938 172.402344 C 192.230469 173.722656 191.21875 175.019531 190.171875 176.292969 C 189.128906 177.566406 188.054688 178.808594 186.949219 180.03125 C 185.84375 181.25 184.707031 182.441406 183.546875 183.605469 C 182.382812 184.769531 181.191406 185.902344 179.96875 187.007812 C 178.75 188.113281 177.503906 189.1875 176.230469 190.234375 C 174.960938 191.277344 173.664062 192.289062 172.339844 193.269531 C 171.019531 194.253906 169.675781 195.199219 168.304688 196.113281 C 166.9375 197.03125 165.546875 197.910156 164.136719 198.757812 C 162.726562 199.605469 161.292969 200.414062 159.84375 201.191406 C 158.390625 201.96875 156.921875 202.707031 155.433594 203.414062 C 153.945312 204.117188 152.441406 204.785156 150.921875 205.417969 C 149.402344 206.046875 147.867188 206.640625 146.316406 207.195312 C 144.769531 207.75 143.207031 208.269531 141.632812 208.746094 C 140.054688 209.226562 138.472656 209.664062 136.875 210.066406 C 135.277344 210.46875 133.671875 210.828125 132.058594 211.152344 C 130.445312 211.476562 128.824219 211.757812 127.195312 212 C 125.566406 212.242188 123.933594 212.445312 122.296875 212.609375 C 120.660156 212.773438 119.019531 212.894531 117.375 212.976562 C 115.730469 213.058594 114.085938 213.101562 112.441406 213.105469 Z M 112.441406 213.105469 " fill-opacity="1" fill-rule="nonzero"/></g></svg>