<svg xmlns="http://www.w3.org/2000/svg" xmlns:xlink="http://www.w3.org/1999/xlink" width="300" zoomAndPan="magnify" viewBox="0 0 224.87999 225" height="300" preserveAspectRatio="xMidYMid meet" version="1.0"><path fill="#ffffff" d="M 99.867188 9.730469 C 50.664062 15.183594 10.570312 54.886719 4.632812 104.011719 C 4.25 107.097656 4 110.195312 3.878906 113.300781 C 3.761719 116.410156 3.777344 119.515625 3.925781 122.621094 C 4.070312 125.730469 4.351562 128.824219 4.765625 131.90625 C 5.179688 134.988281 5.722656 138.046875 6.398438 141.082031 C 7.074219 144.117188 7.878906 147.117188 8.8125 150.085938 C 9.746094 153.050781 10.800781 155.972656 11.984375 158.847656 C 13.167969 161.722656 14.472656 164.542969 15.898438 167.308594 C 17.324219 170.070312 18.863281 172.769531 20.519531 175.402344 C 22.175781 178.03125 23.945312 180.589844 25.820312 183.070312 C 27.695312 185.550781 29.671875 187.945312 31.753906 190.253906 C 33.835938 192.566406 36.011719 194.78125 38.28125 196.90625 C 40.554688 199.03125 42.910156 201.054688 45.355469 202.976562 C 47.800781 204.898438 50.324219 206.710938 52.925781 208.417969 C 55.523438 210.121094 58.191406 211.714844 60.929688 213.191406 C 63.667969 214.667969 66.460938 216.023438 69.3125 217.261719 C 72.167969 218.5 75.066406 219.609375 78.015625 220.597656 C 83.445312 221.46875 85.183594 218.101562 85.183594 215.175781 L 85.183594 196.835938 C 55.128906 203.363281 48.730469 182.304688 48.730469 182.304688 C 43.753906 169.714844 36.6875 166.351562 36.6875 166.351562 C 26.808594 159.621094 37.453125 159.84375 37.453125 159.84375 C 48.300781 160.613281 54.050781 171.019531 54.050781 171.019531 C 63.492188 187.511719 79.4375 182.625 85.621094 180.023438 C 86.59375 172.96875 89.460938 168.191406 92.457031 165.480469 C 68.332031 162.769531 43.085938 153.4375 43.085938 112.109375 C 43.085938 100.066406 47.207031 90.410156 54.257812 82.707031 C 53.175781 79.996094 49.375 68.710938 55.34375 54.066406 C 55.34375 54.066406 64.460938 51.128906 85.183594 65.132812 C 89.605469 63.941406 94.085938 63.046875 98.625 62.445312 C 103.164062 61.847656 107.722656 61.546875 112.304688 61.546875 C 116.882812 61.546875 121.441406 61.847656 125.980469 62.445312 C 130.519531 63.046875 135.003906 63.941406 139.425781 65.132812 C 160.160156 51.128906 169.261719 54.066406 169.261719 54.066406 C 175.222656 68.710938 171.429688 79.996094 170.347656 82.707031 C 177.398438 90.386719 181.523438 100.066406 181.523438 112.109375 C 181.523438 153.546875 156.128906 162.664062 131.941406 165.375 C 135.84375 168.738281 139.425781 175.359375 139.425781 185.445312 L 139.425781 215.175781 C 139.425781 218.101562 141.160156 221.574219 146.699219 220.597656 C 148.269531 220.070312 149.832031 219.507812 151.378906 218.910156 C 152.925781 218.3125 154.457031 217.679688 155.972656 217.011719 C 157.492188 216.339844 158.992188 215.636719 160.480469 214.902344 C 161.964844 214.164062 163.433594 213.390625 164.882812 212.585938 C 166.335938 211.78125 167.765625 210.945312 169.175781 210.074219 C 170.589844 209.203125 171.980469 208.300781 173.351562 207.367188 C 174.722656 206.433594 176.070312 205.46875 177.398438 204.472656 C 178.722656 203.476562 180.027344 202.453125 181.304688 201.394531 C 182.585938 200.339844 183.839844 199.253906 185.070312 198.144531 C 186.300781 197.03125 187.503906 195.890625 188.679688 194.722656 C 189.859375 193.550781 191.007812 192.359375 192.128906 191.136719 C 193.253906 189.917969 194.347656 188.671875 195.414062 187.398438 C 196.480469 186.128906 197.515625 184.832031 198.519531 183.515625 C 199.527344 182.195312 200.503906 180.855469 201.449219 179.492188 C 202.394531 178.128906 203.304688 176.746094 204.1875 175.339844 C 205.070312 173.933594 205.917969 172.511719 206.734375 171.066406 C 207.550781 169.621094 208.332031 168.160156 209.082031 166.679688 C 209.832031 165.199219 210.546875 163.703125 211.226562 162.191406 C 211.90625 160.679688 212.554688 159.152344 213.164062 157.609375 C 213.773438 156.066406 214.347656 154.511719 214.890625 152.945312 C 215.429688 151.375 215.929688 149.792969 216.398438 148.203125 C 216.867188 146.613281 217.296875 145.011719 217.6875 143.398438 C 218.082031 141.789062 218.4375 140.167969 218.757812 138.539062 C 219.078125 136.914062 219.359375 135.277344 219.605469 133.636719 C 219.847656 131.996094 220.054688 130.351562 220.226562 128.703125 C 220.394531 127.050781 220.527344 125.398438 220.617188 123.742188 C 220.710938 122.085938 220.769531 120.429688 220.785156 118.769531 C 220.804688 117.113281 220.78125 115.453125 220.722656 113.796875 C 220.664062 112.140625 220.570312 110.484375 220.433594 108.832031 C 220.300781 107.175781 220.128906 105.527344 219.917969 103.882812 C 219.707031 102.238281 219.460938 100.597656 219.175781 98.964844 C 218.890625 97.328125 218.566406 95.703125 218.207031 94.085938 C 217.847656 92.464844 217.453125 90.855469 217.019531 89.253906 C 216.585938 87.652344 216.117188 86.0625 215.609375 84.484375 C 215.101562 82.902344 214.5625 81.335938 213.984375 79.78125 C 213.40625 78.226562 212.792969 76.6875 212.144531 75.160156 C 211.496094 73.632812 210.8125 72.121094 210.09375 70.625 C 209.375 69.132812 208.625 67.652344 207.839844 66.191406 C 207.050781 64.730469 206.234375 63.289062 205.382812 61.867188 C 204.53125 60.441406 203.648438 59.039062 202.730469 57.65625 C 201.816406 56.273438 200.867188 54.914062 199.890625 53.574219 C 198.910156 52.234375 197.902344 50.917969 196.863281 49.625 C 195.824219 48.332031 194.757812 47.0625 193.660156 45.820312 C 192.5625 44.574219 191.4375 43.355469 190.285156 42.164062 C 189.132812 40.96875 187.953125 39.804688 186.75 38.664062 C 185.542969 37.527344 184.3125 36.417969 183.054688 35.335938 C 181.796875 34.25 180.515625 33.199219 179.210938 32.175781 C 177.90625 31.152344 176.578125 30.160156 175.226562 29.195312 C 173.875 28.234375 172.503906 27.300781 171.109375 26.402344 C 169.71875 25.5 168.304688 24.632812 166.871094 23.800781 C 165.4375 22.964844 163.988281 22.164062 162.515625 21.394531 C 161.046875 20.625 159.5625 19.890625 158.058594 19.191406 C 156.554688 18.488281 155.035156 17.824219 153.5 17.191406 C 151.96875 16.5625 150.417969 15.964844 148.859375 15.40625 C 147.296875 14.847656 145.722656 14.324219 144.136719 13.835938 C 142.554688 13.347656 140.957031 12.894531 139.351562 12.480469 C 137.746094 12.066406 136.128906 11.6875 134.507812 11.347656 C 132.882812 11.007812 131.253906 10.703125 129.617188 10.4375 C 127.980469 10.171875 126.335938 9.941406 124.6875 9.75 C 123.042969 9.558594 121.390625 9.40625 119.734375 9.292969 C 118.082031 9.175781 116.425781 9.097656 114.765625 9.058594 C 113.109375 9.019531 111.449219 9.019531 109.792969 9.054688 C 108.132812 9.09375 106.476562 9.167969 104.820312 9.28125 C 103.167969 9.394531 101.515625 9.542969 99.867188 9.730469 Z M 99.867188 9.730469 " fill-opacity="1" fill-rule="nonzero"/></svg>