<?xml version="1.0" standalone="no"?>
<!DOCTYPE svg PUBLIC "-//W3C//DTD SVG 20010904//EN"
 "http://www.w3.org/TR/2001/REC-SVG-20010904/DTD/svg10.dtd">
<svg version="1.0" xmlns="http://www.w3.org/2000/svg"
 width="100.000000pt" height="100.000000pt" viewBox="0 0 100.000000 100.000000"
 preserveAspectRatio="xMidYMid meet">

<g transform="translate(0.000000,100.000000) scale(0.100000,-0.100000)"
fill="#000000" stroke="none">
<path d="M355 956 c-232 -76 -377 -300 -344 -530 24 -171 115 -298 271 -377
73 -37 88 -31 88 32 l0 49 -45 0 c-64 0 -91 16 -125 76 -16 29 -39 58 -51 64
-14 8 -18 15 -11 22 16 16 52 -1 96 -47 22 -24 50 -45 61 -46 55 -4 70 2 86
36 17 35 17 35 -10 41 -126 27 -180 88 -188 214 -4 55 -1 72 20 111 16 29 23
55 20 72 -3 15 -2 43 1 62 6 30 11 35 34 35 15 -1 46 -11 70 -23 39 -21 49
-22 102 -13 40 6 80 6 120 0 53 -9 63 -8 102 13 24 12 55 22 70 23 23 0 28 -5
33 -34 4 -18 5 -46 4 -62 -2 -16 8 -51 20 -78 19 -40 23 -61 19 -111 -9 -111
-59 -176 -156 -201 -38 -9 -46 -15 -43 -30 2 -11 6 -63 8 -116 5 -122 12 -129
86 -93 194 91 309 303 277 511 -25 163 -128 301 -280 373 -70 34 -82 36 -185
38 -71 2 -124 -2 -150 -11z"/>
</g>
</svg>
