<?xml version="1.0" standalone="no"?>
<!DOCTYPE svg PUBLIC "-//W3C//DTD SVG 20010904//EN"
 "http://www.w3.org/TR/2001/REC-SVG-20010904/DTD/svg10.dtd">
<svg version="1.0" xmlns="http://www.w3.org/2000/svg"
 width="100.000000pt" height="100.000000pt" viewBox="0 0 100.000000 100.000000"
 preserveAspectRatio="xMidYMid meet">

<g transform="translate(0.000000,100.000000) scale(0.100000,-0.100000)"
fill="#000000" stroke="none">
<path d="M251 783 c-256 -218 -269 -235 -179 -241 l48 -3 0 -240 c0 -299 -12
-279 165 -279 l125 0 0 114 c0 141 5 148 93 144 79 -4 87 -17 87 -155 l0 -103
124 0 c100 0 128 3 140 16 14 13 16 51 16 260 l0 244 45 0 c33 0 47 5 54 18
12 23 -6 41 -239 238 -196 166 -219 184 -235 184 -7 0 -116 -89 -244 -197z"/>
</g>
</svg>
