<?xml version="1.0" standalone="no"?>
<!DOCTYPE svg PUBLIC "-//W3C//DTD SVG 20010904//EN"
 "http://www.w3.org/TR/2001/REC-SVG-20010904/DTD/svg10.dtd">
<svg version="1.0" xmlns="http://www.w3.org/2000/svg"
 width="100.000000pt" height="100.000000pt" viewBox="0 0 100.000000 100.000000"
 preserveAspectRatio="xMidYMid meet">

<g transform="translate(0.000000,100.000000) scale(0.100000,-0.100000)"
fill="#000000" stroke="none">
<path d="M440 990 c-248 -29 -433 -238 -433 -490 0 -276 216 -492 493 -492
277 0 493 216 493 492 0 298 -255 524 -553 490z m205 -50 c193 -67 315 -235
315 -436 0 -265 -197 -464 -460 -464 -263 0 -460 199 -460 464 0 198 116 362
305 433 81 30 217 31 300 3z"/>
<path d="M358 823 c-15 -2 -37 -16 -48 -30 -19 -24 -20 -40 -20 -324 l0 -299
85 0 85 0 0 70 0 70 40 0 40 0 0 -70 0 -70 85 0 85 0 0 293 c0 323 -2 334 -60
354 -33 11 -231 15 -292 6z m166 -139 c13 -12 16 -39 16 -125 l0 -109 -40 0
-40 0 0 113 c0 112 7 137 36 137 7 0 20 -7 28 -16z"/>
</g>
</svg>
