<svg xmlns="http://www.w3.org/2000/svg" xmlns:xlink="http://www.w3.org/1999/xlink" width="300" zoomAndPan="magnify" viewBox="0 0 224.87999 225" height="300" preserveAspectRatio="xMidYMid meet" version="1.0"><defs><clipPath id="0a9349a881"><path d="M 0 0.0585938 L 224.761719 0.0585938 L 224.761719 224.9375 L 0 224.9375 Z M 0 0.0585938 " clip-rule="nonzero"/></clipPath></defs><g clip-path="url(#0a9349a881)"><path fill="#ffffff" d="M 167.671875 0.0585938 L 57.207031 0.0585938 C 25.644531 0.0585938 0 25.703125 0 57.265625 L 0 167.734375 C 0 199.296875 25.644531 224.941406 57.207031 224.941406 L 167.671875 224.941406 C 199.234375 224.941406 224.878906 199.296875 224.878906 167.734375 L 224.878906 57.265625 C 224.878906 25.703125 199.234375 0.0585938 167.671875 0.0585938 Z M 213.042969 167.734375 C 213.042969 192.785156 192.726562 213.105469 167.671875 213.105469 L 57.207031 213.105469 C 32.152344 213.105469 11.835938 192.785156 11.835938 167.734375 L 11.835938 57.265625 C 11.835938 32.214844 32.152344 11.894531 57.207031 11.894531 L 167.671875 11.894531 C 192.726562 11.894531 213.042969 32.214844 213.042969 57.265625 Z M 213.042969 167.734375 " fill-opacity="1" fill-rule="nonzero"/></g><path fill="#ffffff" d="M 112.441406 53.320312 C 79.890625 53.320312 53.261719 79.953125 53.261719 112.5 C 53.261719 145.046875 79.890625 171.679688 112.441406 171.679688 C 144.988281 171.679688 171.617188 145.046875 171.617188 112.5 C 171.617188 79.953125 144.988281 53.320312 112.441406 53.320312 Z M 112.441406 159.84375 C 86.402344 159.84375 65.097656 138.539062 65.097656 112.5 C 65.097656 86.460938 86.402344 65.15625 112.441406 65.15625 C 138.480469 65.15625 159.78125 86.460938 159.78125 112.5 C 159.78125 138.539062 138.480469 159.84375 112.441406 159.84375 Z M 112.441406 159.84375 " fill-opacity="1" fill-rule="nonzero"/><path fill="#ffffff" d="M 189.371094 43.457031 C 189.371094 44.234375 189.296875 45.003906 189.144531 45.765625 C 188.992188 46.527344 188.769531 47.269531 188.472656 47.988281 C 188.175781 48.707031 187.808594 49.386719 187.378906 50.035156 C 186.945312 50.679688 186.457031 51.277344 185.90625 51.828125 C 185.355469 52.375 184.757812 52.867188 184.113281 53.300781 C 183.464844 53.730469 182.785156 54.09375 182.066406 54.394531 C 181.347656 54.691406 180.609375 54.914062 179.847656 55.066406 C 179.082031 55.21875 178.3125 55.292969 177.535156 55.292969 C 176.757812 55.292969 175.988281 55.21875 175.226562 55.066406 C 174.464844 54.914062 173.726562 54.691406 173.007812 54.394531 C 172.289062 54.09375 171.605469 53.730469 170.960938 53.300781 C 170.316406 52.867188 169.71875 52.375 169.167969 51.828125 C 168.617188 51.277344 168.128906 50.679688 167.695312 50.035156 C 167.265625 49.386719 166.898438 48.707031 166.601562 47.988281 C 166.304688 47.269531 166.078125 46.527344 165.929688 45.765625 C 165.777344 45.003906 165.699219 44.234375 165.699219 43.457031 C 165.699219 42.679688 165.777344 41.910156 165.929688 41.148438 C 166.078125 40.386719 166.304688 39.648438 166.601562 38.929688 C 166.898438 38.210938 167.265625 37.527344 167.695312 36.882812 C 168.128906 36.234375 168.617188 35.636719 169.167969 35.089844 C 169.71875 34.539062 170.316406 34.046875 170.960938 33.617188 C 171.605469 33.183594 172.289062 32.820312 173.007812 32.523438 C 173.726562 32.226562 174.464844 32 175.226562 31.847656 C 175.988281 31.699219 176.757812 31.621094 177.535156 31.621094 C 178.3125 31.621094 179.082031 31.699219 179.847656 31.847656 C 180.609375 32 181.347656 32.226562 182.066406 32.523438 C 182.785156 32.820312 183.464844 33.183594 184.113281 33.617188 C 184.757812 34.046875 185.355469 34.539062 185.90625 35.089844 C 186.457031 35.636719 186.945312 36.234375 187.378906 36.882812 C 187.808594 37.527344 188.175781 38.210938 188.472656 38.929688 C 188.769531 39.648438 188.992188 40.386719 189.144531 41.148438 C 189.296875 41.910156 189.371094 42.679688 189.371094 43.457031 Z M 189.371094 43.457031 " fill-opacity="1" fill-rule="nonzero"/><path fill="#ffffff" d="M 124.277344 112.5 C 124.277344 113.277344 124.199219 114.046875 124.046875 114.808594 C 123.898438 115.570312 123.671875 116.3125 123.375 117.03125 C 123.078125 117.746094 122.710938 118.429688 122.28125 119.074219 C 121.847656 119.722656 121.359375 120.320312 120.808594 120.871094 C 120.257812 121.417969 119.660156 121.910156 119.015625 122.339844 C 118.371094 122.773438 117.6875 123.136719 116.96875 123.433594 C 116.25 123.730469 115.511719 123.957031 114.75 124.109375 C 113.988281 124.261719 113.21875 124.335938 112.441406 124.335938 C 111.664062 124.335938 110.894531 124.261719 110.132812 124.109375 C 109.367188 123.957031 108.628906 123.730469 107.910156 123.433594 C 107.191406 123.136719 106.511719 122.773438 105.863281 122.339844 C 105.21875 121.910156 104.621094 121.417969 104.070312 120.871094 C 103.519531 120.320312 103.03125 119.722656 102.597656 119.074219 C 102.167969 118.429688 101.800781 117.746094 101.503906 117.03125 C 101.207031 116.3125 100.984375 115.570312 100.832031 114.808594 C 100.679688 114.046875 100.605469 113.277344 100.605469 112.5 C 100.605469 111.722656 100.679688 110.953125 100.832031 110.191406 C 100.984375 109.429688 101.207031 108.6875 101.503906 107.96875 C 101.800781 107.253906 102.167969 106.570312 102.597656 105.925781 C 103.03125 105.277344 103.519531 104.679688 104.070312 104.128906 C 104.621094 103.582031 105.21875 103.089844 105.863281 102.660156 C 106.511719 102.226562 107.191406 101.863281 107.910156 101.566406 C 108.628906 101.269531 109.367188 101.042969 110.132812 100.890625 C 110.894531 100.738281 111.664062 100.664062 112.441406 100.664062 C 113.21875 100.664062 113.988281 100.738281 114.75 100.890625 C 115.511719 101.042969 116.25 101.269531 116.96875 101.566406 C 117.6875 101.863281 118.371094 102.226562 119.015625 102.660156 C 119.660156 103.089844 120.257812 103.582031 120.808594 104.128906 C 121.359375 104.679688 121.847656 105.277344 122.28125 105.925781 C 122.710938 106.570312 123.078125 107.253906 123.375 107.96875 C 123.671875 108.6875 123.898438 109.429688 124.046875 110.191406 C 124.199219 110.953125 124.277344 111.722656 124.277344 112.5 Z M 124.277344 112.5 " fill-opacity="1" fill-rule="nonzero"/></svg>