<?xml version="1.0" standalone="no"?>
<!DOCTYPE svg PUBLIC "-//W3C//DTD SVG 20010904//EN"
 "http://www.w3.org/TR/2001/REC-SVG-20010904/DTD/svg10.dtd">
<svg version="1.0" xmlns="http://www.w3.org/2000/svg"
 width="100.000000pt" height="100.000000pt" viewBox="0 0 100.000000 100.000000"
 preserveAspectRatio="xMidYMid meet">

<g transform="translate(0.000000,100.000000) scale(0.100000,-0.100000)"
fill="#000000" stroke="none">
<path d="M601 955 c-36 -17 -85 -57 -147 -120 -52 -52 -94 -99 -94 -105 0 -6
27 -10 63 -10 l63 0 64 66 c36 36 79 72 97 80 133 58 276 -85 219 -219 -22
-52 -184 -202 -233 -217 -66 -20 -123 0 -177 63 -44 49 -44 49 -80 37 -44 -14
-46 -32 -8 -88 74 -110 212 -149 335 -93 57 25 226 197 254 258 57 122 2 277
-121 340 -76 39 -164 42 -235 8z"/>
<path d="M327 666 c-21 -8 -56 -27 -78 -42 -57 -39 -182 -175 -204 -221 -26
-54 -30 -130 -11 -197 43 -145 234 -229 367 -161 34 18 239 212 239 227 0 4
-28 8 -63 8 l-63 0 -59 -61 c-96 -98 -164 -119 -245 -76 -75 40 -109 133 -76
210 17 42 171 196 213 213 72 31 139 10 199 -60 38 -45 40 -46 77 -35 47 13
48 31 5 95 -63 91 -202 137 -301 100z"/>
</g>
</svg>
