<?xml version="1.0" standalone="no"?>
<!DOCTYPE svg PUBLIC "-//W3C//DTD SVG 20010904//EN"
 "http://www.w3.org/TR/2001/REC-SVG-20010904/DTD/svg10.dtd">
<svg version="1.0" xmlns="http://www.w3.org/2000/svg"
 width="100.000000pt" height="100.000000pt" viewBox="0 0 100.000000 100.000000"
 preserveAspectRatio="xMidYMid meet">

<g transform="translate(0.000000,100.000000) scale(0.100000,-0.100000)"
fill="#000000" stroke="none">
<path d="M422 988 c-7 -7 -12 -22 -12 -34 0 -17 -9 -25 -37 -35 -21 -6 -55
-20 -76 -31 -35 -18 -40 -18 -56 -4 -27 25 -43 19 -94 -32 -51 -51 -56 -66
-31 -93 14 -16 14 -21 -4 -56 -11 -21 -25 -55 -31 -75 -10 -29 -18 -38 -35
-38 -36 0 -46 -19 -46 -90 0 -71 10 -90 46 -90 17 0 25 -9 35 -37 6 -21 20
-55 31 -76 18 -35 18 -40 4 -56 -25 -27 -19 -43 32 -94 51 -51 66 -56 93 -31
16 14 21 14 56 -4 21 -11 55 -25 76 -31 28 -10 37 -18 37 -35 0 -36 19 -46 90
-46 71 0 90 10 90 46 0 17 9 25 38 35 20 6 54 20 75 31 35 18 40 18 56 4 27
-25 43 -19 94 32 51 51 56 66 31 93 -14 16 -14 21 4 56 11 21 25 55 31 76 10
28 18 37 35 37 36 0 46 19 46 90 0 71 -10 90 -46 90 -17 0 -25 9 -35 38 -6 20
-20 54 -31 75 -18 35 -18 40 -4 56 25 27 19 43 -32 94 -51 51 -66 56 -93 31
-16 -14 -21 -14 -56 4 -21 11 -55 25 -75 31 -29 10 -38 18 -38 35 0 36 -19 46
-90 46 -38 0 -71 -5 -78 -12z m183 -247 c100 -45 155 -131 155 -240 -1 -153
-108 -261 -260 -261 -152 0 -260 108 -260 260 0 107 49 188 142 234 65 32 161
35 223 7z"/>
<path d="M427 680 c-35 -28 -52 -81 -38 -122 14 -39 49 -78 70 -78 9 0 -6 -11
-32 -24 -27 -13 -59 -34 -73 -47 l-24 -23 27 -29 c16 -16 42 -36 60 -43 38
-17 121 -18 160 -3 33 12 83 58 83 75 0 16 -53 57 -100 77 -19 9 -28 16 -19
16 8 1 25 11 37 24 77 82 31 197 -78 197 -32 0 -55 -6 -73 -20z"/>
</g>
</svg>
